<svg width="24" height="25" viewBox="0 0 24 25" fill="none" xmlns="http://www.w3.org/2000/svg">
<g id="lucide/eye">
<g id="Vector">
<path d="M2.06251 12.8474C1.97916 12.6229 1.97916 12.3759 2.06251 12.1514C2.87421 10.1832 4.25202 8.50042 6.02128 7.31628C7.79053 6.13214 9.87155 5.5 12.0005 5.5C14.1295 5.5 16.2105 6.13214 17.9797 7.31628C19.749 8.50042 21.1268 10.1832 21.9385 12.1514C22.0218 12.3759 22.0218 12.6229 21.9385 12.8474C21.1268 14.8155 19.749 16.4983 17.9797 17.6825C16.2105 18.8666 14.1295 19.4988 12.0005 19.4988C9.87155 19.4988 7.79053 18.8666 6.02128 17.6825C4.25202 16.4983 2.87421 14.8155 2.06251 12.8474Z" stroke="white" stroke-width="2.16667" stroke-linecap="round" stroke-linejoin="round"/>
<path d="M12.0005 15.4994C13.6574 15.4994 15.0005 14.1562 15.0005 12.4994C15.0005 10.8425 13.6574 9.49938 12.0005 9.49938C10.3437 9.49938 9.00051 10.8425 9.00051 12.4994C9.00051 14.1562 10.3437 15.4994 12.0005 15.4994Z" stroke="white" stroke-width="2.16667" stroke-linecap="round" stroke-linejoin="round"/>
</g>
</g>
</svg>
